<svg width="14" height="14" viewBox="0 0 14 14" fill="none" xmlns="http://www.w3.org/2000/svg">
<path d="M13.3992 1.7317C13.4772 1.80981 13.4773 1.93674 13.3992 2.01482L8.69775 6.71625C8.54154 6.87246 8.54154 7.12572 8.69775 7.28193L13.3999 11.9841C13.4779 12.0621 13.4778 12.1891 13.3999 12.2672L12.2681 13.399C12.19 13.4768 12.0637 13.4763 11.9857 13.3983L7.28353 8.69615C7.12732 8.53994 6.87406 8.53994 6.71785 8.69615L2.01503 13.399C1.93695 13.477 1.81003 13.477 1.73192 13.399L0.600131 12.2672C0.522368 12.189 0.522831 12.0627 0.600821 11.9847L5.30363 7.28193C5.45984 7.12572 5.45984 6.87246 5.30363 6.71625L0.601512 2.01413C0.523488 1.9361 0.52296 1.80982 0.600821 1.7317L1.73261 0.599913C1.81073 0.521978 1.93768 0.521864 2.01573 0.599913L6.71785 5.30203C6.87406 5.45824 7.12732 5.45824 7.28353 5.30203L11.985 0.600603C12.063 0.522613 12.1893 0.522151 12.2674 0.599913L13.3992 1.7317Z" fill="black"/>
</svg>
