<svg width="36" height="36" viewBox="0 0 36 36" fill="none" xmlns="http://www.w3.org/2000/svg">
<g filter="url(#filter0_d_2_4103)">
<path d="M2 16C2 7.16344 9.16344 0 18 0C26.8366 0 34 7.16344 34 16C34 24.8366 26.8366 32 18 32C9.16344 32 2 24.8366 2 16Z" fill="white"/>
<path d="M23.7467 13.6332C23.0467 10.5532 20.3601 9.1665 18.0001 9.1665C18.0001 9.1665 18.0001 9.1665 17.9934 9.1665C15.6401 9.1665 12.9467 10.5465 12.2467 13.6265C11.4667 17.0665 13.5734 19.9798 15.4801 21.8132C16.1867 22.4932 17.0934 22.8332 18.0001 22.8332C18.9067 22.8332 19.8134 22.4932 20.5134 21.8132C22.4201 19.9798 24.5267 17.0732 23.7467 13.6332ZM18.0001 16.9732C16.8401 16.9732 15.9001 16.0332 15.9001 14.8732C15.9001 13.7132 16.8401 12.7732 18.0001 12.7732C19.1601 12.7732 20.1001 13.7132 20.1001 14.8732C20.1001 16.0332 19.1601 16.9732 18.0001 16.9732Z" fill="#1B1B1B"/>
</g>
<defs>
<filter id="filter0_d_2_4103" x="0" y="0" width="36" height="36" filterUnits="userSpaceOnUse" color-interpolation-filters="sRGB">
<feFlood flood-opacity="0" result="BackgroundImageFix"/>
<feColorMatrix in="SourceAlpha" type="matrix" values="0 0 0 0 0 0 0 0 0 0 0 0 0 0 0 0 0 0 127 0" result="hardAlpha"/>
<feOffset dy="2"/>
<feGaussianBlur stdDeviation="1"/>
<feColorMatrix type="matrix" values="0 0 0 0 0.227451 0 0 0 0 0.227451 0 0 0 0 0.227451 0 0 0 0.08 0"/>
<feBlend mode="normal" in2="BackgroundImageFix" result="effect1_dropShadow_2_4103"/>
<feBlend mode="normal" in="SourceGraphic" in2="effect1_dropShadow_2_4103" result="shape"/>
</filter>
</defs>
</svg>
